# xmcd
#
# Track frame offsets:
# 150
# 12953
# 23346
# 34810
# 46502
# 58436
# 69939
# 80577
# 91518
# 104009
# 115889
# 128513
# 141455
# 153434
# 164537
# 175987
# 187932
# 199223
# 208564
# 220910
# 232315
# 243081
# 254102
#
# Disc length: 3562 seconds
#
# Revision: 0
# Processed by: cddbd v1.5.1PL0 Copyright (c) Steve Scherf et al.
# Submitted via: plextools 2.18
#
DISCID=420de817
DTITLE=Sticks McGhee (& John Hogg, Stormy Herman, Square Walton, Levi Seabury) - Volume 2, 1951-1960
DYEAR=1900
DGENRE=R&B
TTITLE0=Sticks McGhee: New Found Love
TTITLE1=Sticks McGhee: Meet You In The Morning
TTITLE2=Sticks McGhee: My Little Rose
TTITLE3=Sticks McGhee: No More Reveille
TTITLE4=Sticks McGhee: Ease My Worried Mind
TTITLE5=Sticks McGhee: Things Have Changed
TTITLE6=Sticks McGhee: Travelin' On
TTITLE7=Sticks McGhee: Help Me Baby
TTITLE8=Sticks McGhee: Money Fever
TTITLE9=Sticks McGhee: Sleep In Job
TTITLE10=John Hogg: Got A Mean Woman
TTITLE11=John Hogg: Why Did You Leave Me
TTITLE12=John Hogg: West Texas Blues
TTITLE13=John Hogg: Black Snake Blues
TTITLE14=John Hogg: Worrying Blues
TTITLE15=Stormy Herman: The Jitterbug
TTITLE16=Stormy Herman: Bad Luck
TTITLE17=Square Walton: Bad Hangover
TTITLE18=Square Walton: Gimme Your Bank Roll
TTITLE19=Square Walton: Fish Tail Blues
TTITLE20=Square Walton: Pepper Head Woman
TTITLE21=Levi Seabury: Boogie Beat
TTITLE22=Levi Seabury: Motherless Child
EXTD=RST Records (Austria) 91628-2
EXTT0=
EXTT1=
EXTT2=
EXTT3=
EXTT4=
EXTT5=
EXTT6=
EXTT7=
EXTT8=
EXTT9=
EXTT10=
EXTT11=
EXTT12=
EXTT13=
EXTT14=
EXTT15=
EXTT16=
EXTT17=
EXTT18=
EXTT19=
EXTT20=
EXTT21=
EXTT22=
PLAYORDER=
